HIERARCHY
ROOT Hips
{
	OFFSET 0.000000 0.000000 0.000000 
	CHANNELS 6 Xposition Yposition Zposition Yrotation Zrotation Xrotation 
	JOINT Lumbar
	{
		OFFSET 0.000000 0.000000 0.000000 
		CHANNELS 3 Zrotation Xrotation Yrotation
		JOINT Neck
		{
			OFFSET 0.000000 0.445665 0.000000 
			CHANNELS 3 Zrotation Xrotation Yrotation
			End Site
			{
				OFFSET 0.000000 0.227535 0.000000 
			}
		}
		JOINT RightShoulder
		{
			OFFSET 0.019635 0.377685 0.194865 
			CHANNELS 3 Zrotation Xrotation Yrotation
			JOINT RightElbow
			{
				OFFSET 0.000000 -0.243375 0.000000 
				CHANNELS 2 Zrotation Yrotation
				JOINT RightWrist
				{
					OFFSET 0.000000 -0.264825 0.000000 
					CHANNELS 2 Zrotation Xrotation
					End Site
					{
						OFFSET 0.006600 -0.176220 0.000990 
					}
				}
			}
		}
		JOINT LeftShoulder
		{
			OFFSET 0.019635 0.377685 -0.194865 
			CHANNELS 3 Zrotation Xrotation Yrotation
			JOINT LeftElbow
			{
				OFFSET 0.000000 -0.243375 0.000000 
				CHANNELS 2 Zrotation Yrotation
				JOINT LeftWrist
				{
					OFFSET 0.000000 -0.264825 0.000000 
					CHANNELS 2 Zrotation Xrotation
					End Site
					{
						OFFSET 0.006600 -0.176220 -0.000990 
					}
				}
			}
		}
	}
	JOINT RightHip
	{
		OFFSET 0.052140 -0.069960 0.075570 
		CHANNELS 3 Zrotation Xrotation Yrotation
		JOINT RightKnee
		{
			OFFSET 0.000000 -0.402270 0.000000 
			CHANNELS 1 Zrotation
			JOINT RightAnkle
			{
				OFFSET 0.000000 -0.404085 0.000000 
				CHANNELS 3 Zrotation Xrotation Yrotation
				End Site
				{
					OFFSET 0.204105 -0.089430 0.008415 
				}
			}
		}
	}
	JOINT LeftHip
	{
		OFFSET 0.052140 -0.069960 -0.075570 
		CHANNELS 3 Zrotation Xrotation Yrotation
		JOINT LeftKnee
		{
			OFFSET 0.000000 -0.402270 0.000000 
			CHANNELS 1 Zrotation
			JOINT LeftAnkle
			{
				OFFSET 0.000000 -0.404085 0.000000 
				CHANNELS 3 Zrotation Xrotation Yrotation
				End Site
				{
					OFFSET 0.204105 -0.089430 -0.008415 
				}
			}
		}
	}
}
MOTION
Frames: 30
Frame Time: 0.02
-0.09548 -0.03436 -0.21836 -0.57534 -17.70792 0.6058 24.1932 8.45269 3.75912 -6.86963 1.30156 -0.82771 0.63055 -12.49987 -7.33123 21.63912 89.38765 -4.36357 1.42824 -18.59887 24.01391 -13.02288 38.22205 -114.13502 7.69014 -6.31172 56.71069 -16.11931 -2.84288 -38.78741 -13.33261 -4.38792 -3.32172 38.74052 -3.77289 17.14824 -28.52603 -5.97767 3.67136 2.53257
-0.0985 -0.03506 -0.21972 -0.2887 -18.16891 0.8439 23.59391 8.92922 3.71166 -6.75396 1.08259 -0.82783 1.01866 -12.46197 -7.3934 21.75048 89.26441 -4.64859 1.01928 -18.54203 24.18989 -13.69682 38.92567 -111.88831 7.26207 -6.42785 57.29598 -16.47725 -2.76452 -38.47875 -13.41841 -4.37468 -3.31894 39.45096 -4.12891 17.2747 -28.44461 -5.98886 3.65441 2.52261
-0.10148 -0.03573 -0.22114 -0.06295 -18.65061 1.08902 23.01453 9.39216 3.82656 -6.68125 0.93481 -0.82792 1.33823 -12.42414 -7.39813 21.86521 89.14481 -4.90162 0.62727 -18.37063 24.29837 -14.3073 39.73819 -109.16243 6.75895 -6.58333 57.97802 -16.88046 -2.80751 -38.24047 -13.52222 -4.3454 -3.30716 40.20663 -4.52546 17.20329 -28.37633 -6.01539 3.6699 2.53035
-0.10443 -0.03641 -0.22251 0.18465 -19.10964 1.32395 22.42735 9.86316 3.87378 -6.59979 0.75678 -0.82802 1.67981 -12.38283 -7.44023 21.96672 89.01689 -5.16736 0.23404 -18.25555 24.43095 -14.93592 40.50424 -106.69634 6.29666 -6.71286 58.59869 -17.2476 -2.77846 -37.9751 -13.61646 -4.32488 -3.30029 40.92505 -4.8908 17.23187 -28.30895 -6.03367 3.66917 2.52923
-0.10762 -0.03711 -0.22397 0.45593 -19.62619 1.58747 21.8313 10.32857 3.89499 -6.4736 0.56684 -0.82813 2.06074 -12.35872 -7.42306 22.12369 88.92204 -5.43833 -0.187 -18.12281 24.59341 -15.61736 41.26424 -104.00466 5.79881 -6.86548 59.29335 -17.6763 -2.81624 -37.68571 -13.71685 -4.29887 -3.29044 41.71658 -5.30781 17.22167 -28.21331 -6.05708 3.67416 2.53126
-0.11028 -0.03776 -0.22526 0.66479 -20.02779 1.7946 21.26184 10.79991 4.0076 -6.4503 0.42004 -0.82822 2.34254 -12.29797 -7.51998 22.16558 88.75853 -5.69196 -0.54649 -18.0005 24.67681 -16.17042 42.06029 -101.68464 5.35936 -6.98395 59.85722 -17.99136 -2.74842 -37.46472 -13.8082 -4.28005 -3.28434 42.36522 -5.62894 17.24438 -28.17802 -6.07361 3.67503 2.531
-0.11151 -0.03833 -0.22612 0.70318 -20.10007 1.83 20.73616 11.31058 4.35076 -6.70269 0.37155 -0.8283 2.37477 -12.13427 -7.94742 21.86415 88.38918 -5.90275 -0.73284 -17.92292 24.55847 -16.38902 42.92669 -100.55001 5.10766 -6.9933 60.02917 -17.952 -2.32123 -37.41114 -13.87504 -4.28711 -3.29234 42.61224 -5.65983 17.39898 -28.3231 -6.06662 3.65795 2.5208
-0.1122 -0.03885 -0.22682 0.68304 -20.05677 1.81078 20.24136 11.82408 4.77728 -7.05641 0.36494 -0.82838 2.30834 -11.93397 -8.4921 21.45008 87.95259 -6.09784 -0.85884 -17.86179 24.36282 -16.47892 43.82478 -99.8093 4.91745 -6.969 60.06709 -17.80197 -1.79051 -37.42521 -13.9313 -4.30154 -3.30411 42.71275 -5.5956 17.59394 -28.52566 -6.05234 3.63547 2.50763
-0.11312 -0.03938 -0.22757 0.69842 -20.07074 1.82622 19.74881 12.32311 5.15417 -7.3626 0.34192 -0.82846 2.28203 -11.75076 -8.98517 21.10274 87.55594 -6.30247 -1.01737 -17.80089 24.20191 -16.62353 44.70942 -98.86329 4.69415 -6.96552 60.17114 -17.72269 -1.33266 -37.41145 -13.98921 -4.31111 -3.3131 42.87749 -5.58554 17.77507 -28.69059 -6.04193 3.61459 2.4954
-0.11413 -0.03998 -0.22839 0.67481 -20.06606 1.80139 19.18812 12.87667 5.58614 -7.67759 0.31069 -0.82854 2.27265 -11.56423 -9.47312 20.69056 87.11984 -6.49654 -1.1546 -17.70366 24.03935 -16.78128 45.59527 -97.99487 4.48755 -6.9415 60.25747 -17.56034 -0.77127 -37.38762 -14.06095 -4.32636 -3.32622 43.05413 -5.5317 17.93174 -28.90352 -6.0297 3.59827 2.48544
-0.1148 -0.04043 -0.22904 0.71832 -20.07172 1.84612 18.77652 13.31834 5.92123 -7.99643 0.30504 -0.82861 2.2062 -11.37769 -9.99515 20.38596 86.74997 -6.70835 -1.32105 -17.68729 23.86397 -16.8828 46.48305 -97.08454 4.26464 -6.94974 60.34647 -17.54199 -0.39781 -37.40014 -14.10132 -4.33195 -3.33185 43.17018 -5.54467 18.14976 -29.03123 -6.01933 3.57096 2.46993
-0.11463 -0.04046 -0.2293 0.97043 -20.14073 2.1071 18.76849 13.44316 5.96648 -8.31239 0.36434 -0.82862 2.00002 -11.18502 -10.62845 20.41112 86.5781 -6.98172 -1.59188 -17.89189 23.66164 -16.85299 47.38068 -95.79233 3.95695 -7.07376 60.48474 -17.96669 -0.58052 -37.49479 -14.05622 -4.30739 -3.31493 43.15782 -5.77623 18.54302 -28.89867 -6.0159 3.5125 2.4387
-0.11413 -0.04033 -0.22939 1.29081 -20.22273 2.43799 18.90945 13.45663 5.91106 -8.62639 0.44678 -0.82862 1.74119 -10.9965 -11.28397 20.54733 86.47526 -7.2721 -1.89261 -18.17713 23.4513 -16.77279 48.27573 -94.47476 3.63523 -7.22818 60.62815 -18.53637 -0.95235 -37.62383 -13.98018 -4.27329 -3.29059 43.08862 -6.07618 18.99476 -28.68031 -6.01451 3.4434 2.4021
-0.11376 -0.04028 -0.22955 1.57436 -20.29452 2.72964 18.98245 13.52597 5.90199 -8.93369 0.51525 -0.82863 1.51105 -10.81583 -11.89931 20.62939 86.34184 -7.54906 -2.17385 -18.42539 23.25189 -16.72088 49.16403 -93.28767 3.33714 -7.35592 60.76265 -19.02759 -1.23014 -37.73768 -13.91907 -4.24472 -3.2703 43.04336 -6.33743 19.41031 -28.50835 -6.01209 3.38041 2.36859
-0.11343 -0.04023 -0.22974 1.88017 -20.38081 3.0506 19.05755 13.57344 5.89278 -9.27665 0.59966 -0.82863 1.25781 -10.59239 -12.64482 20.72347 86.20337 -7.8492 -2.47786 -18.67723 23.01917 -16.64155 50.08922 -91.62771 2.97034 -7.53521 60.92013 -19.56854 -1.54164 -37.85137 -13.85361 -4.21127 -3.24718 43.00149 -6.62723 19.86738 -28.30726 -6.00988 3.31188 2.33227
-0.11296 -0.04014 -0.22983 2.15678 -20.44108 3.3282 19.16331 13.63963 5.85961 -9.54348 0.65602 -0.82863 1.04085 -10.45997 -13.12404 20.81984 86.09188 -8.10566 -2.74235 -18.93849 22.85466 -16.6092 50.93367 -90.92158 2.73996 -7.61678 61.03291 -20.04119 -1.8253 -37.97357 -13.7904 -4.18571 -3.22825 42.94036 -6.87543 20.2518 -28.14557 -6.00778 3.25239 2.30054
-0.11222 -0.04003 -0.22971 2.33483 -20.43011 3.46595 19.31661 13.78786 5.77753 -9.60051 0.62719 -0.82864 0.9431 -10.57384 -12.85314 20.90012 86.04545 -8.23412 -2.89054 -19.2244 22.88353 -16.71769 51.58023 -93.02768 2.91197 -7.40387 61.0196 -20.29531 -2.02001 -38.10263 -13.73755 -4.18356 -3.22184 42.8459 -6.98901 20.41752 -28.11473 -6.00566 3.2209 2.28304
-0.11135 -0.03989 -0.2295 2.48153 -20.39237 3.55845 19.49554 13.95815 5.67567 -9.58054 0.56948 -0.82864 0.88324 -10.77994 -12.31508 20.97852 86.02277 -8.31862 -2.99814 -19.51388 22.98116 -16.8756 52.14109 -96.06116 3.21741 -7.09484 60.96202 -20.47522 -2.17473 -38.24015 -13.68867 -4.18977 -3.22003 42.73369 -7.05932 20.50868 -28.12604 -6.00344 3.19884 2.27033
-0.11054 -0.03977 -0.22934 2.64389 -20.36495 3.674 19.66314 14.11638 5.58735 -9.59523 0.52618 -0.82864 0.80222 -10.94682 -11.90433 21.05524 85.98461 -8.42556 -3.12463 -19.78912 23.04569 -17.01295 52.7247 -98.55442 3.44673 -6.84136 60.92632 -20.68606 -2.32534 -38.37897 -13.64033 -4.19261 -3.21666 42.62643 -7.15205 20.63621 -28.11704 -6.00139 3.17219 2.25528
-0.10973 -0.03963 -0.22913 2.80322 -20.34567 3.78163 19.83493 14.27953 5.47666 -9.61105 0.47841 -0.82864 0.73506 -11.10308 -11.46775 21.14653 85.96845 -8.52309 -3.25051 -20.11891 23.11769 -17.14242 53.37573 -101.5458 3.74053 -6.53922 60.88337 -20.91371 -2.57485 -38.49773 -13.58118 -4.19338 -3.21086 42.5301 -7.23587 20.75512 -28.10988 -5.9995 3.14642 2.24073
-0.10889 -0.03952 -0.229 2.9598 -20.30294 3.89389 20.00175 14.43886 5.4088 -9.60662 0.43265 -0.82865 0.64985 -11.30253 -11.02343 21.2055 85.9114 -8.62906 -3.36732 -20.33683 23.19061 -17.29821 53.86713 -103.72349 3.93245 -6.31473 60.84484 -21.08683 -2.60856 -38.65929 -13.54564 -4.20048 -3.21123 42.40772 -7.3266 20.87373 -28.1101 -5.99648 3.12126 2.22634
-0.10797 -0.0395 -0.22913 3.1224 -20.20207 4.03163 20.15104 14.58489 5.46756 -9.56175 0.40064 -0.82865 0.4961 -11.60546 -10.60385 21.17602 85.73414 -8.77317 -3.47145 -20.2274 23.24927 -17.53706 53.92842 -103.39926 3.80566 -6.33231 60.83041 -21.12724 -2.03773 -38.9411 -13.57658 -4.22383 -3.22814 42.21701 -7.45085 21.00702 -28.11981 -5.9934 3.09536 2.21122
-0.10703 -0.0395 -0.22935 3.2818 -20.07854 4.17487 20.29321 14.72633 5.56992 -9.49977 0.37138 -0.82865 0.32487 -11.94726 -10.18906 21.11346 85.51503 -8.92641 -3.56718 -20.00799 23.3066 -17.7971 53.83366 -102.23023 3.57286 -6.43046 60.8217 -21.11475 -1.25421 -39.26453 -13.63083 -4.25315 -3.251 42.00128 -7.58245 21.1425 -28.13601 -5.98623 3.07007 2.19611
-0.1061 -0.0395 -0.22952 3.4385 -19.96521 4.31429 20.4363 14.86878 5.65054 -9.44788 0.3399 -0.82865 0.16816 -12.26699 -9.78474 21.06524 85.31546 -9.0728 -3.6651 -19.85024 23.36449 -18.03254 53.81742 -101.46553 3.39156 -6.48885 60.80967 -21.12585 -0.57845 -39.56626 -13.67311 -4.27928 -3.27077 41.79761 -7.70786 21.27881 -28.15007 -5.98195 3.04431 2.18105
-0.10514 -0.03949 -0.22973 3.61191 -19.85104 4.4581 20.59026 15.01671 5.7386 -9.38364 0.31123 -0.82865 -0.01482 -12.60912 -9.31822 21.01992 85.11376 -9.22927 -3.76877 -19.64398 23.4247 -18.33151 53.76724 -100.64393 3.2002 -6.55714 60.79925 -21.13604 0.14795 -39.88093 -13.72147 -4.30777 -3.29241 41.5898 -7.84398 21.40601 -28.1622 -5.98309 3.01868 2.16599
-0.10425 -0.0395 -0.22988 3.74989 -19.73399 4.5942 20.71942 15.15157 5.82171 -9.34192 0.27809 -0.82866 -0.14795 -12.91193 -8.98524 20.96079 84.90724 -9.3672 -3.85863 -19.51181 23.47917 -18.50425 53.75038 -99.73203 3.00373 -6.62524 60.78729 -21.13689 0.81574 -40.17733 -13.76244 -4.33256 -3.31142 41.3856 -7.95988 21.55221 -28.17924 -5.95973 2.99405 2.15077
-0.10357 -0.03959 -0.22988 3.79294 -19.61132 4.7116 20.78238 15.25394 5.88152 -9.36811 0.22911 -0.82866 -0.13739 -13.10199 -9.02672 20.87069 84.68894 -9.45419 -3.91573 -19.61776 23.51497 -18.30847 53.87621 -98.73835 2.81091 -6.67318 60.77109 -21.12136 1.29745 -40.42218 -13.77913 -4.34645 -3.32239 41.19187 -8.02001 21.7632 -28.20929 -5.98236 2.96064 2.13605
-0.10297 -0.03969 -0.22981 3.80019 -19.48732 4.8205 20.82036 15.34272 5.93473 -9.41768 0.17622 -0.82866 -0.0766 -13.24967 -9.20259 20.76805 84.4687 -9.52194 -3.95882 -19.80082 23.54521 -17.98744 54.03901 -97.68484 2.61737 -6.71867 60.75316 -21.09903 1.70803 -40.64546 -13.78726 -4.35624 -3.33037 41.00384 -8.05937 21.99123 -28.24367 -5.96499 2.92983 2.12105
-0.10235 -0.03978 -0.22977 3.8226 -19.36615 4.93096 20.86927 15.43604 5.99048 -9.45589 0.12707 -0.82866 -0.04014 -13.41282 -9.31362 20.67172 84.25499 -9.59713 -4.00637 -19.94423 23.57976 -17.73317 54.1772 -96.68062 2.42893 -6.76565 60.73528 -21.08278 2.13209 -40.8726 -13.79801 -4.36733 -3.33923 40.81695 -8.10727 22.20336 -28.27515 -5.88508 2.90584 2.10539
-0.10168 -0.03991 -0.22977 3.8496 -19.23464 5.05144 20.9198 15.53626 6.04988 -9.49642 0.06961 -0.82867 0.00215 -13.59344 -9.44012 20.5715 84.01615 -9.67822 -4.06161 -20.10325 23.60701 -17.43808 54.3431 -95.55725 2.21706 -6.81356 60.72053 -21.05298 2.64087 -41.12626 -13.8147 -4.38094 -3.35026 40.61323 -8.15934 22.44986 -28.31079 -6.12312 2.85 2.09269
